<svg xmlns="http://www.w3.org/2000/svg" width="1200" height="630" viewBox="0 0 1200 630" role="img" aria-labelledby="title desc"><title id="title">Swetha Senthilkumar — Semiconductor Engineering Portfolio</title><desc id="desc">Swetha brand mark with semiconductor engineering, technology and student leadership.</desc><rect width="1200" height="630" fill="#fcfcfa"/><rect width="1200" height="14" fill="#ff5a00"/><g transform="translate(65 120) scale(.42)"><path d="M325 68H178c-55 0-95 32-95 78 0 49 37 69 87 86l64 22c25 9 37 19 37 34 0 19-20 31-55 31H92l-30 48h158c60 0 102-31 102-80 0-43-28-67-84-86l-63-22c-25-9-37-19-37-32 0-16 17-27 47-27h110z" fill="#111"/><path d="M197 150c39 13 68 27 78 49 7 15 7 34 0 49-11 24-34 42-65 52H116l-31 48h174c56-13 95-46 103-89 8-46-14-82-65-108-18-9-39-18-62-25z" fill="#ff5a00"/><text x="430" y="265" font-family="Arial, Helvetica, sans-serif" font-size="132" font-weight="800" letter-spacing="2" fill="#111">SWETH</text><path d="M1050 265l55-100 55 100h-39l-16-30-17 30z" fill="#111"/><path d="M1084 230l21-38 21 38z" fill="#ff5a00"/></g><text x="545" y="180" font-family="Arial, Helvetica, sans-serif" font-size="48" font-weight="800" fill="#111">Swetha Senthilkumar</text><text x="545" y="250" font-family="Arial, Helvetica, sans-serif" font-size="28" fill="#111">Semiconductor Engineering Student</text><text x="545" y="295" font-family="Arial, Helvetica, sans-serif" font-size="28" fill="#111">Tech Innovator · Student Leader</text><text x="545" y="370" font-family="Arial, Helvetica, sans-serif" font-size="21" fill="#ff5a00">Projects · Engineering · Communication</text><text x="545" y="405" font-family="Arial, Helvetica, sans-serif" font-size="21" fill="#ff5a00">Wired &amp; Inspired</text></svg>
